<svg width="24" height="24" viewBox="0 0 24 24" fill="none" xmlns="http://www.w3.org/2000/svg">
<mask id="mask0_963_26" style="mask-type:alpha" maskUnits="userSpaceOnUse" x="0" y="0" width="24" height="24">
<path d="M4 11.7257C4 11.346 4.28215 11.0322 4.64823 10.9825L4.75 10.9757H19.75C20.1642 10.9757 20.5 11.3115 20.5 11.7257C20.5 12.1054 20.2178 12.4192 19.8518 12.4688L19.75 12.4757H4.75C4.33579 12.4757 4 12.1399 4 11.7257Z" fill="#8693A0"/>
<path d="M13.171 6.23279C12.8775 5.94053 12.8765 5.46566 13.1687 5.17214C13.4344 4.9053 13.851 4.8802 14.1451 5.09742L14.2294 5.16985L20.2794 11.1939C20.547 11.4603 20.5714 11.8785 20.3524 12.1725L20.2794 12.2568L14.2294 18.2818C13.9359 18.574 13.4611 18.5731 13.1688 18.2796C12.9031 18.0127 12.8797 17.596 13.0982 17.3029L13.171 17.2189L18.687 11.725L13.171 6.23279Z" fill="#8693A0"/>
</mask>
<g mask="url(#mask0_963_26)">
<path d="M0 0H24V24H0V0Z" fill="#465360"/>
</g>
</svg>
