<svg width="44" height="44" viewBox="0 0 44 44" fill="none" xmlns="http://www.w3.org/2000/svg">
<g filter="url(#filter0_dd_959_2315)">
<path d="M31.4818 27.5156L24.1331 27.5156L28.6121 22.9597C29.1104 22.4613 29.5054 21.8683 29.7743 21.2151C30.0432 20.562 30.1805 19.8616 30.1784 19.1547C30.1784 17.7155 29.6234 16.3643 28.6133 15.348C27.8973 14.6242 26.9904 14.1216 25.9996 13.8995C26.5111 13.0571 26.7803 12.0885 26.7775 11.1014C26.7779 8.1344 24.3787 5.72009 21.4285 5.72009L12.5171 5.72009C9.5673 5.72009 7.16724 8.13359 7.16724 11.1018C7.16724 14.0692 9.56689 16.4848 12.5159 16.4848L24.8313 16.4864C25.5409 16.4864 26.2063 16.7632 26.7051 17.2654C27.2071 17.7705 27.4822 18.442 27.4822 19.1547C27.4822 19.8673 27.2071 20.5377 26.6999 21.0464L20.3407 27.5161L17.9989 30.1021C17.4887 30.9439 17.22 31.9114 17.2226 32.8974C17.2226 35.864 19.6222 38.2799 22.5716 38.2799L31.4818 38.2799C34.432 38.2799 36.8329 35.864 36.8329 32.8974C36.8329 29.9291 34.432 27.5156 31.4818 27.5156ZM23.299 12.994L22.5328 13.773L12.5167 13.7721C11.8132 13.7713 11.1387 13.4896 10.6413 12.989C10.144 12.4884 9.86435 11.8097 9.86382 11.1018C9.86382 9.63134 11.0547 8.43355 12.5167 8.43355L12.5167 8.43395L21.4285 8.43395C22.8904 8.43395 24.0813 9.63216 24.0813 11.1022C24.0822 11.454 24.0135 11.8024 23.8792 12.1272C23.7449 12.452 23.5476 12.7467 23.299 12.994ZM31.4818 35.5665L22.5716 35.5665C21.8685 35.5657 21.1943 35.2844 20.697 34.7841C20.1998 34.2839 19.92 33.6057 19.9192 32.8982C19.9192 32.1851 20.1959 31.5152 20.7015 31.0065L21.4669 30.2287L21.4669 30.2283L31.4822 30.2283C32.9466 30.2283 34.1363 31.4249 34.1363 32.897C34.1352 33.6048 33.8552 34.2834 33.3575 34.7838C32.8599 35.2843 32.1854 35.5657 31.4818 35.5665Z" fill="#007AFF"/>
<path d="M19.9019 16.5734L15.289 21.0511C13.1418 23.1142 13.1434 26.472 15.289 28.5338C16.0249 29.2468 16.9587 29.7415 17.9793 29.9591L20.3915 27.4167L19.1823 27.4167C18.8241 27.4181 18.4693 27.3509 18.1384 27.2192C17.8076 27.0874 17.5074 26.8937 17.2554 26.6493C16.1899 25.6253 16.1899 23.9608 17.2588 22.9321L23.8089 16.5734L19.9019 16.5734Z" fill="#002246"/>
</g>
<defs>
<filter id="filter0_dd_959_2315" x="-3" y="-2" width="50" height="50" filterUnits="userSpaceOnUse" color-interpolation-filters="sRGB">
<feFlood flood-opacity="0" result="BackgroundImageFix"/>
<feColorMatrix in="SourceAlpha" type="matrix" values="0 0 0 0 0 0 0 0 0 0 0 0 0 0 0 0 0 0 127 0" result="hardAlpha"/>
<feOffset dy="1"/>
<feGaussianBlur stdDeviation="1.5"/>
<feComposite in2="hardAlpha" operator="out"/>
<feColorMatrix type="matrix" values="0 0 0 0 0.0627451 0 0 0 0 0.0941176 0 0 0 0 0.156863 0 0 0 0.1 0"/>
<feBlend mode="normal" in2="BackgroundImageFix" result="effect1_dropShadow_959_2315"/>
<feColorMatrix in="SourceAlpha" type="matrix" values="0 0 0 0 0 0 0 0 0 0 0 0 0 0 0 0 0 0 127 0" result="hardAlpha"/>
<feOffset dy="1"/>
<feGaussianBlur stdDeviation="1"/>
<feComposite in2="hardAlpha" operator="out"/>
<feColorMatrix type="matrix" values="0 0 0 0 0.0627451 0 0 0 0 0.0941176 0 0 0 0 0.156863 0 0 0 0.06 0"/>
<feBlend mode="normal" in2="effect1_dropShadow_959_2315" result="effect2_dropShadow_959_2315"/>
<feBlend mode="normal" in="SourceGraphic" in2="effect2_dropShadow_959_2315" result="shape"/>
</filter>
</defs>
</svg>
